<svg width="98" height="32" viewBox="0 0 98 32" fill="none" xmlns="http://www.w3.org/2000/svg">
<path d="M5.96971 7.24528C6.69818 4.71519 7.76175 2.87511 9.16043 1.72507C10.5591 0.575024 12.4968 0 14.9737 0C17.4505 0 19.0385 0.575024 19.7379 1.72507C20.4372 2.84636 20.4081 4.68643 19.6505 7.24528L18.3392 11.6011H12.9194L14.2743 6.98652C14.42 6.52651 14.3763 6.18149 14.1432 5.95148C13.9392 5.72147 13.6478 5.60647 13.269 5.60647C12.7737 5.60647 12.3657 5.7646 12.0452 6.08086C11.7247 6.36837 11.4333 6.92902 11.171 7.7628L6.14454 24.2372C5.91143 25.071 5.85315 25.646 5.96971 25.9623C6.1154 26.2498 6.43593 26.3935 6.93129 26.3935C7.25182 26.3935 7.57235 26.3073 7.89288 26.1348L6.27567 31.9569C6.10083 31.9569 5.926 31.9569 5.75116 31.9569C5.57633 31.9856 5.4015 32 5.22666 32C2.74985 32 1.16177 31.4393 0.462436 30.3181C-0.207761 29.168 -0.149483 27.3136 0.63727 24.7547L5.96971 7.24528Z" fill="url(#paint0_linear)"/>
<path d="M23.4227 20.3558H26.0452L29.2797 5.77898H29.2359L23.4227 20.3558ZM13.2823 31.3962L27.1816 0.603774H34.3935L29.4982 31.3962H23.9035L24.9088 25.9623H21.1499L18.9644 31.3962H13.2823Z" fill="url(#paint1_linear)"/>
<path d="M45.3186 9.87601L45.8868 8.15094C46.3822 6.45463 46.1054 5.60647 45.0564 5.60647C44.5027 5.60647 44.0511 5.80773 43.7014 6.21024C43.3517 6.58401 43.0458 7.23091 42.7835 8.15094C42.4921 9.04223 42.4484 9.81851 42.6524 10.4798C42.8855 11.1123 43.2206 11.7305 43.6577 12.3342C44.1239 12.9093 44.6193 13.513 45.1438 14.1456C45.6974 14.7493 46.1637 15.4825 46.5425 16.345C46.9213 17.1788 47.1398 18.1851 47.1981 19.3639C47.2564 20.5139 47.0378 21.9227 46.5425 23.5903C46.0471 25.2004 45.5226 26.5517 44.969 27.6442C44.4153 28.708 43.7597 29.5705 43.0021 30.2318C42.2736 30.8643 41.414 31.31 40.4233 31.5687C39.4617 31.8562 38.3253 32 37.014 32H36.2273L38.2378 26.3504C38.9955 26.4654 39.5782 26.336 39.9862 25.9623C40.3941 25.5597 40.7584 24.8553 41.0789 23.8491C41.3994 22.7853 41.4577 21.894 41.2537 21.1752C41.0498 20.4277 40.7147 19.752 40.2484 19.1482C39.8114 18.5445 39.316 17.9407 38.7623 17.3369C38.2087 16.7044 37.7425 15.9712 37.3637 15.1375C36.9849 14.3037 36.7663 13.3118 36.708 12.1617C36.6498 11.0117 36.8829 9.57412 37.4074 7.84906C37.8445 6.469 38.3253 5.29021 38.8498 4.31267C39.4034 3.30638 40.0445 2.48697 40.7729 1.85445C41.5014 1.22192 42.3464 0.761907 43.308 0.474396C44.2988 0.158132 45.4497 0 46.761 0C49.063 0 50.6073 0.560647 51.3941 1.68194C52.1809 2.80323 52.1663 4.72956 51.3504 7.46092L50.6073 9.87601H45.3186Z" fill="url(#paint2_linear)"/>
<path d="M46.5295 31.3962L55.9268 0.603774H61.3467L51.9493 31.3962H46.5295Z" fill="url(#paint3_linear)"/>
<path d="M76.2984 0.603774H81.4123L72.015 31.3962H65.1964L67.0759 9.87601H67.0322L60.4759 31.3962H55.3183L64.7156 0.603774H71.6216L69.611 22.2965H69.6984L76.2984 0.603774Z" fill="url(#paint4_linear)"/>
<path d="M83.486 24.7116C83.2821 25.3154 83.2529 25.7466 83.3986 26.0054C83.5735 26.2641 83.9523 26.3935 84.535 26.3935C85.0887 26.3935 85.5112 26.2641 85.8026 26.0054C86.1231 25.7466 86.3854 25.3154 86.5893 24.7116L91.9218 7.28841C92.0675 6.68464 92.0675 6.25337 91.9218 5.99461C91.7761 5.73585 91.4264 5.60647 90.8728 5.60647C90.29 5.60647 89.8383 5.73585 89.5178 5.99461C89.1973 6.25337 88.9642 6.68464 88.8185 7.28841L83.486 24.7116ZM83.3986 7.24528C83.8357 5.80773 84.3311 4.62893 84.8847 3.7089C85.4675 2.76011 86.1231 2.01258 86.8516 1.46631C87.6092 0.920036 88.4542 0.546272 89.3867 0.345015C90.3191 0.115005 91.3827 0 92.5774 0C93.743 0 94.7337 0.115005 95.5496 0.345015C96.3655 0.546272 96.9774 0.920036 97.3853 1.46631C97.8224 2.01258 98.0264 2.76011 97.9973 3.7089C97.9973 4.62893 97.7787 5.80773 97.3416 7.24528L92.0092 24.7547C91.5721 26.1923 91.0622 27.3854 90.4794 28.3342C89.9258 29.2543 89.2701 29.9874 88.5125 30.5337C87.784 31.08 86.939 31.4537 85.9774 31.655C85.045 31.885 83.996 32 82.8304 32C81.6357 32 80.6304 31.885 79.8145 31.655C78.9986 31.4537 78.3867 31.08 77.9788 30.5337C77.5708 29.9874 77.3669 29.2543 77.3669 28.3342C77.396 27.3854 77.6291 26.1923 78.0662 24.7547L83.3986 7.24528Z" fill="url(#paint5_linear)"/>
<defs>
<linearGradient id="paint0_linear" x1="3.03721" y1="16" x2="94.1536" y2="16" gradientUnits="userSpaceOnUse">
<stop stop-color="#00B2FF"/>
<stop offset="1" stop-color="#8F00FF"/>
</linearGradient>
<linearGradient id="paint1_linear" x1="3.03721" y1="16" x2="94.1536" y2="16" gradientUnits="userSpaceOnUse">
<stop stop-color="#00B2FF"/>
<stop offset="1" stop-color="#8F00FF"/>
</linearGradient>
<linearGradient id="paint2_linear" x1="3.03721" y1="16" x2="94.1536" y2="16" gradientUnits="userSpaceOnUse">
<stop stop-color="#00B2FF"/>
<stop offset="1" stop-color="#8F00FF"/>
</linearGradient>
<linearGradient id="paint3_linear" x1="3.03721" y1="16" x2="94.1536" y2="16" gradientUnits="userSpaceOnUse">
<stop stop-color="#00B2FF"/>
<stop offset="1" stop-color="#8F00FF"/>
</linearGradient>
<linearGradient id="paint4_linear" x1="3.03721" y1="16" x2="94.1536" y2="16" gradientUnits="userSpaceOnUse">
<stop stop-color="#00B2FF"/>
<stop offset="1" stop-color="#8F00FF"/>
</linearGradient>
<linearGradient id="paint5_linear" x1="3.03721" y1="16" x2="94.1536" y2="16" gradientUnits="userSpaceOnUse">
<stop stop-color="#00B2FF"/>
<stop offset="1" stop-color="#8F00FF"/>
</linearGradient>
</defs>
</svg>
