<svg width="30" height="30" viewBox="0 0 30 30" fill="none" xmlns="http://www.w3.org/2000/svg">
<path fill-rule="evenodd" clip-rule="evenodd" d="M20.8392 23.0578L27.3234 29.5436C27.9303 30.1505 28.9239 30.1521 29.5327 29.5484C29.851 29.239 30 28.8285 30 28.4367C30 28.0307 29.8351 27.6275 29.5375 27.3295L23.053 20.8437C24.7694 18.6523 25.7935 15.8933 25.7935 12.8994C25.7935 5.78836 20.0067 0 12.8967 0C5.78711 0 0 5.78179 0 12.8994C0 20.0102 5.78029 25.7989 12.8967 25.7989C15.8899 25.7989 18.6482 24.7745 20.8392 23.0578ZM29.2857 28.4367C29.2857 28.652 29.2033 28.8738 29.0323 29.0386C28.8702 29.2008 28.6558 29.2831 28.4406 29.2857C28.6545 29.2822 28.8673 29.1999 29.0285 29.0387C29.1995 28.8739 29.2819 28.6521 29.2819 28.4367C29.2819 28.2212 29.1932 27.9994 29.0285 27.8346L22.0852 20.8898C23.9477 18.7482 25.0754 15.9537 25.0754 12.8995C25.0754 6.18275 19.6082 0.71434 12.8929 0.71434C12.8349 0.71434 12.7771 0.714747 12.7193 0.715558C12.7783 0.714711 12.8375 0.714286 12.8967 0.714286C19.612 0.714286 25.0792 6.1827 25.0792 12.8994C25.0792 15.9537 23.9516 18.7481 22.089 20.8898L29.0323 27.8346C29.197 27.9994 29.2857 28.2212 29.2857 28.4367ZM13.0732 25.0834C16.0568 25.0408 18.7836 23.9214 20.8832 22.0955L20.8814 22.0937C18.7824 23.92 16.0563 25.0399 13.0732 25.0834ZM3.13905 12.8931C3.13905 7.51458 7.51402 3.1331 12.8967 3.1331C18.2801 3.1331 22.6608 7.51514 22.6608 12.8931C22.6608 18.2768 18.2742 22.6531 12.8967 22.6531C7.51978 22.6531 3.13905 18.2774 3.13905 12.8931ZM12.7442 2.4199C7.0367 2.50178 2.42477 7.1714 2.42477 12.8931C2.42477 18.672 7.12543 23.3673 12.8967 23.3673C12.944 23.3673 12.9912 23.367 13.0383 23.3664C12.9899 23.3671 12.9414 23.3674 12.8929 23.3674C7.12159 23.3674 2.42093 18.6721 2.42093 12.8931C2.42093 7.17018 7.03493 2.49974 12.7442 2.4199Z" fill="white"/>
</svg>
