<svg width="40" height="38" viewBox="0 0 40 38" fill="none" xmlns="http://www.w3.org/2000/svg">
<path d="M26.5245 20.1072H1.30449C0.584409 20.1072 0 19.5322 0 18.8238C0 18.1153 0.584409 17.5403 1.30449 17.5403H26.5245C27.2446 17.5403 27.829 18.1153 27.829 18.8238C27.829 19.5322 27.2446 20.1072 26.5245 20.1072Z" fill="white"/>
<path d="M19.5627 26.9512C19.2286 26.9512 18.8949 26.8265 18.6407 26.5749C18.1312 26.0735 18.1312 25.2607 18.6407 24.7591L24.6762 18.8214L18.6407 12.8834C18.1312 12.3821 18.1312 11.569 18.6407 11.0677C19.1506 10.5663 19.9767 10.5663 20.4863 11.0677L27.4435 17.9127C27.9531 18.4141 27.9531 19.2269 27.4435 19.7282L20.4863 26.573C20.2306 26.8265 19.8968 26.9512 19.5627 26.9512Z" fill="white"/>
<path d="M20.8675 37.6471C12.9517 37.6471 5.96334 32.9618 3.0604 25.7094C2.79606 25.0523 3.12632 24.3062 3.79608 24.0462C4.46394 23.7896 5.22415 24.1095 5.48848 24.7719C7.99491 31.0332 14.032 35.0802 20.8675 35.0802C29.9779 35.0802 37.3912 27.7868 37.3912 18.8235C37.3912 9.8603 29.9779 2.56683 20.8675 2.56683C14.032 2.56683 7.99491 6.61385 5.48848 12.8752C5.22223 13.5376 4.46394 13.8575 3.79608 13.6009C3.12632 13.3408 2.79606 12.5948 3.0604 11.9377C5.96334 4.68528 12.9517 0 20.8675 0C31.4165 0 40.0002 8.44497 40.0002 18.8235C40.0002 29.2021 31.4165 37.6471 20.8675 37.6471Z" fill="white"/>
<path d="M20.8675 37.6471C12.9517 37.6471 5.96334 32.9618 3.0604 25.7094C2.79606 25.0523 3.12632 24.3062 3.79608 24.0462C4.46394 23.7896 5.22415 24.1095 5.48848 24.7719C7.99491 31.0332 14.032 35.0802 20.8675 35.0802C29.9779 35.0802 37.3912 27.7868 37.3912 18.8235C37.3912 9.8603 29.9779 2.56683 20.8675 2.56683C14.032 2.56683 7.99491 6.61385 5.48848 12.8752C5.22223 13.5376 4.46394 13.8575 3.79608 13.6009C3.12632 13.3408 2.79606 12.5948 3.0604 11.9377C5.96334 4.68528 12.9517 0 20.8675 0C31.4165 0 40.0002 8.44497 40.0002 18.8235C40.0002 29.2021 31.4165 37.6471 20.8675 37.6471Z" fill="url(#paint0_linear)"/>
<defs>
<linearGradient id="paint0_linear" x1="2.96924" y1="18.8235" x2="40.0002" y2="18.8235" gradientUnits="userSpaceOnUse">
<stop stop-color="#02B0FF"/>
<stop offset="1" stop-color="#8F00FF"/>
</linearGradient>
</defs>
</svg>
