<svg width="428" height="337" viewBox="0 0 428 337" fill="none" xmlns="http://www.w3.org/2000/svg">
<path d="M73.8811 202.876C73.8811 202.876 51.462 239.692 0 267.815C0 267.815 21.9096 277.019 48.9144 276.507L50.443 328.663C50.443 328.663 98.3383 309.233 138.591 259.122L108.529 202.365L73.8811 202.876Z" fill="url(#paint0_linear)"/>
<path d="M31.5917 247.36C31.5917 247.36 36.687 256.564 44.3299 263.211C51.9728 269.858 60.1252 287.755 64.7109 295.936C69.2966 304.117 73.3728 316.901 73.3728 316.901L78.4681 313.833C78.4681 313.833 79.9966 306.674 71.3347 293.379C62.6727 279.574 53.5013 273.438 48.406 263.211C43.3108 252.984 35.668 244.803 35.668 244.803L31.5917 247.36Z" fill="#9925E6"/>
<path d="M354.119 202.876C354.119 202.876 376.538 239.692 428 267.815C428 267.815 406.091 277.019 379.086 276.507L377.557 328.663C377.557 328.663 329.662 309.233 289.409 259.122L319.471 202.365L354.119 202.876Z" fill="url(#paint1_linear)"/>
<path d="M396.918 247.359C396.918 247.359 391.823 256.563 384.18 263.211C376.537 269.858 368.385 287.754 363.799 295.936C359.213 304.117 355.137 316.9 355.137 316.9L350.042 313.832C350.042 313.832 348.513 306.674 357.175 293.379C365.837 279.573 375.009 273.437 380.104 263.211C385.199 252.984 392.842 244.803 392.842 244.803L396.918 247.359Z" fill="#9925E6"/>
<path d="M216.04 336.843C303.838 336.843 375.012 265.417 375.012 177.308C375.012 89.1996 303.838 17.7734 216.04 17.7734C128.242 17.7734 57.0682 89.1996 57.0682 177.308C57.0682 265.417 128.242 336.843 216.04 336.843Z" fill="url(#paint2_linear)"/>
<path d="M216.04 333.778C302.15 333.778 371.955 263.725 371.955 177.311C371.955 90.8968 302.15 20.8442 216.04 20.8442C129.931 20.8442 60.1257 90.8968 60.1257 177.311C60.1257 263.725 129.931 333.778 216.04 333.778Z" fill="url(#paint3_linear)"/>
<path d="M216.04 332.242C130.44 332.242 60.6352 262.702 60.1257 176.798C60.1257 177.31 60.1257 177.31 60.1257 177.821C60.1257 264.236 129.931 334.288 216.04 334.288C302.15 334.288 371.955 264.236 371.955 177.821C371.955 177.31 371.955 177.31 371.955 176.798C371.445 262.702 301.641 332.242 216.04 332.242Z" fill="#9EAEC4"/>
<path d="M216.04 301.051C284.14 301.051 339.345 245.65 339.345 177.309C339.345 108.968 284.14 53.5674 216.04 53.5674C147.941 53.5674 92.7352 108.968 92.7352 177.309C92.7352 245.65 147.941 301.051 216.04 301.051Z" fill="url(#paint4_linear)"/>
<path d="M216.039 299.005C283.013 299.005 337.306 244.519 337.306 177.308C337.306 110.097 283.013 55.6118 216.039 55.6118C149.066 55.6118 94.7725 110.097 94.7725 177.308C94.7725 244.519 149.066 299.005 216.039 299.005Z" fill="url(#paint5_linear)"/>
<path d="M216.041 292.358C279.357 292.358 330.684 240.849 330.684 177.309C330.684 113.769 279.357 62.2603 216.041 62.2603C152.725 62.2603 101.398 113.769 101.398 177.309C101.398 240.849 152.725 292.358 216.041 292.358Z" fill="url(#paint6_linear)"/>
<path d="M216.039 289.292C277.666 289.292 327.625 239.157 327.625 177.311C327.625 115.466 277.666 65.3301 216.039 65.3301C154.412 65.3301 104.453 115.466 104.453 177.311C104.453 239.157 154.412 289.292 216.039 289.292Z" fill="url(#paint7_radial)"/>
<path d="M76.9408 48.4546C93.7551 18.2862 140.122 -3.18963 180.374 0.389679C220.627 3.96898 238.97 31.0694 222.155 61.2378C205.341 91.4063 158.974 112.882 118.722 109.303C78.9789 105.723 60.1265 78.623 76.9408 48.4546Z" fill="url(#paint8_radial)" fill-opacity="0.4"/>
<path d="M173.751 248.895C168.655 248.895 164.07 244.804 163.56 239.691C163.56 239.18 163.56 234.578 163.56 233.555V233.044V232.533L170.184 194.694L140.632 165.548C138.593 163.503 137.574 160.946 137.574 157.367C137.574 156.856 137.574 156.344 137.574 155.833C137.065 153.276 137.574 150.209 139.103 148.163C140.632 145.607 143.179 144.584 145.727 144.073L187.508 137.937L206.36 100.098C207.889 96.5189 211.455 94.4736 215.532 94.4736C219.608 94.4736 222.665 96.5189 224.703 100.098L243.556 137.937L285.337 144.073C288.394 144.584 290.432 146.118 291.96 148.163C293.489 150.209 293.999 153.276 293.489 155.833C293.489 156.344 293.489 156.856 293.489 157.878C293.489 161.458 292.47 164.014 290.432 165.548L260.879 194.694L267.503 232.533C267.503 233.044 267.503 234.066 267.503 235.089C267.503 236.623 267.503 239.691 267.503 240.714C266.484 245.316 262.408 248.895 257.822 248.895C256.294 248.895 254.765 248.384 253.237 247.872L216.041 227.931L178.846 247.872C177.317 248.895 175.789 248.895 173.751 248.895Z" fill="url(#paint9_linear)"/>
<path d="M223.176 105.721L242.538 144.582L285.338 148.672C289.414 149.184 292.471 153.786 292.471 157.876C292.471 159.922 291.962 162.478 289.924 164.523L258.843 194.692L266.486 235.598C266.486 236.621 266.486 239.689 266.486 240.712C265.467 245.825 259.862 248.893 254.766 246.336L216.552 226.394L178.338 246.336C173.243 249.404 166.619 245.313 166.619 239.689C166.619 239.178 166.619 234.576 166.619 234.064L174.262 194.692L143.181 164.523C141.142 162.478 140.633 159.922 140.633 157.876C140.633 153.786 143.69 149.184 147.766 148.672L190.566 144.582L209.928 105.721C211.457 99.5847 220.119 99.5847 223.176 105.721Z" fill="#6A8BA8"/>
<path d="M265.976 238.667C264.957 243.781 259.352 246.849 254.257 244.292L216.043 224.35L177.828 244.292C172.733 247.36 166.109 243.269 166.109 237.645C166.109 237.133 166.109 234.577 166.109 232.02C166.109 235.088 166.109 239.179 166.109 239.69C166.619 245.315 172.733 248.894 177.828 246.337L216.043 226.395L254.257 246.337C259.352 248.894 264.957 245.826 265.976 240.713C265.976 240.201 266.486 234.577 265.976 231.509C265.976 234.577 265.976 238.156 265.976 238.667Z" fill="#76AABB"/>
<path d="M173.241 193.161L142.16 162.992C140.122 160.947 139.613 158.39 139.613 156.345C139.613 154.811 139.613 156.345 139.613 158.39C139.613 160.947 140.122 162.992 142.16 165.037L172.732 194.695L173.241 193.161Z" fill="#76AABB"/>
<path d="M291.96 156.344C291.96 158.389 291.451 160.946 289.413 162.991L258.332 193.16L258.841 194.694L289.413 165.036C291.451 162.991 291.96 160.946 291.96 158.389C291.96 156.344 291.96 154.81 291.96 156.344Z" fill="#76AABB"/>
<path d="M223.176 101.121L242.538 139.982L285.338 146.118C291.962 147.141 294.51 155.322 289.924 159.924L258.843 190.092L265.976 233.044C266.996 239.691 260.372 244.805 254.257 241.737L216.043 221.795L177.829 241.737C171.714 244.805 165.09 239.691 166.11 233.044L173.243 190.092L142.162 159.924C137.576 155.322 140.124 147.141 146.748 146.118L189.548 139.982L208.91 101.121C211.457 94.9851 220.119 94.9851 223.176 101.121Z" fill="url(#paint10_linear)"/>
<path d="M157.447 175.264C165.09 175.264 186.999 175.775 222.666 168.105C247.123 162.992 262.409 150.72 261.39 146.629C260.371 142.539 242.537 139.982 242.537 139.982L223.175 101.121C220.118 94.9851 211.456 94.9851 208.399 101.121L189.037 139.982L146.237 146.118C139.613 147.141 137.066 155.322 141.651 159.924L157.447 175.264Z" fill="url(#paint11_linear)"/>
<path d="M173.241 189.07L142.16 158.901C140.632 157.367 139.613 155.833 139.613 153.788C139.613 155.833 140.122 158.39 142.16 159.924L172.732 190.092L173.241 189.07Z" fill="#919FB5"/>
<path d="M254.257 240.715L216.043 220.773L177.829 240.715C172.733 243.783 166.109 239.692 166.109 234.068C165.6 240.203 172.224 244.805 177.829 241.737L216.043 221.796L254.257 241.737C259.862 244.805 266.486 240.203 265.976 234.068C265.467 239.692 259.353 243.271 254.257 240.715Z" fill="#D3D9EB"/>
<path d="M289.412 158.901L258.331 189.07V190.092L288.903 159.924C290.941 157.879 291.45 155.833 291.45 153.788C291.96 155.833 290.941 157.367 289.412 158.901Z" fill="#919FB5"/>
<path d="M258.841 192.649L265.974 235.601C265.974 234.578 265.974 234.067 265.974 233.044L258.841 192.649Z" fill="#BAC4DD"/>
<path d="M146.747 148.675L189.547 142.539L208.909 103.678C211.966 97.5421 220.628 97.5421 223.685 103.678L243.047 142.539L285.847 148.675C289.923 149.186 292.471 152.254 292.98 155.834C293.49 151.743 290.942 147.141 285.847 146.63L243.047 140.494L223.685 101.633C220.628 95.4968 211.966 95.4968 208.909 101.633L189.547 140.494L146.747 146.63C142.161 147.141 139.104 151.743 139.613 155.834C140.633 152.254 143.18 149.186 146.747 148.675Z" fill="url(#paint12_radial)"/>
<path d="M173.242 192.649L166.109 233.044C166.109 234.067 166.109 234.578 166.109 235.601L173.242 192.649Z" fill="#BAC4DD"/>
<defs>
<linearGradient id="paint0_linear" x1="113.129" y1="228.77" x2="29.5663" y2="297.833" gradientUnits="userSpaceOnUse">
<stop offset="0.0994764" stop-color="#1F0033"/>
<stop offset="0.1739" stop-color="#24003B"/>
<stop offset="0.2906" stop-color="#300052"/>
<stop offset="0.435" stop-color="#440076"/>
<stop offset="0.6014" stop-color="#6100A9"/>
<stop offset="0.7841" stop-color="#8500E9"/>
<stop offset="0.8429" stop-color="#9100FF"/>
</linearGradient>
<linearGradient id="paint1_linear" x1="315.105" y1="228.77" x2="398.669" y2="297.833" gradientUnits="userSpaceOnUse">
<stop offset="0.0994764" stop-color="#1F0033"/>
<stop offset="0.1739" stop-color="#24003B"/>
<stop offset="0.2906" stop-color="#300052"/>
<stop offset="0.435" stop-color="#440076"/>
<stop offset="0.6014" stop-color="#6100A9"/>
<stop offset="0.7841" stop-color="#8500E9"/>
<stop offset="0.8429" stop-color="#9100FF"/>
</linearGradient>
<linearGradient id="paint2_linear" x1="215.973" y1="16.3279" x2="215.973" y2="340.061" gradientUnits="userSpaceOnUse">
<stop offset="0.2408" stop-color="#DBE2FF"/>
<stop offset="0.3613" stop-color="#7985A2"/>
<stop offset="0.4921" stop-color="#546A7B"/>
<stop offset="1" stop-color="#364952"/>
</linearGradient>
<linearGradient id="paint3_linear" x1="215.974" y1="8.27065" x2="215.974" y2="341.206" gradientUnits="userSpaceOnUse">
<stop stop-color="#9DB1BE"/>
<stop offset="0.2408" stop-color="#BFC8E2"/>
<stop offset="0.3246" stop-color="#F9F9F9"/>
<stop offset="0.4031" stop-color="#BFC8E2"/>
<stop offset="0.4574" stop-color="#7F90A5"/>
<stop offset="0.4921" stop-color="#546A7B"/>
<stop offset="0.6283" stop-color="#BFC8E2"/>
<stop offset="0.8482" stop-color="#7992A2"/>
<stop offset="1" stop-color="#7982A2"/>
</linearGradient>
<linearGradient id="paint4_linear" x1="215.973" y1="52.443" x2="215.973" y2="302.745" gradientUnits="userSpaceOnUse">
<stop stop-color="#DEE3FF"/>
<stop offset="0.9084" stop-color="#6D8795"/>
<stop offset="1" stop-color="#617D8A"/>
</linearGradient>
<linearGradient id="paint5_linear" x1="215.973" y1="56.0066" x2="215.973" y2="299.799" gradientUnits="userSpaceOnUse">
<stop stop-color="#152C37"/>
<stop offset="0.7539" stop-color="#546A7B"/>
<stop offset="0.8232" stop-color="#738598"/>
<stop offset="1" stop-color="#C0C7DE"/>
</linearGradient>
<linearGradient id="paint6_linear" x1="215.743" y1="61.7413" x2="216.209" y2="293.77" gradientUnits="userSpaceOnUse">
<stop stop-color="#004B5E"/>
<stop offset="1" stop-color="#002330"/>
</linearGradient>
<radialGradient id="paint7_radial" cx="0" cy="0" r="1" gradientUnits="userSpaceOnUse" gradientTransform="translate(202.38 135.367) scale(147.165 147.686)">
<stop stop-color="#70D6D8"/>
<stop offset="0.2408" stop-color="#00A6A2"/>
<stop offset="0.5131" stop-color="#03778E"/>
<stop offset="0.7749" stop-color="#05576D"/>
<stop offset="1" stop-color="#063142"/>
</radialGradient>
<radialGradient id="paint8_radial" cx="0" cy="0" r="1" gradientUnits="userSpaceOnUse" gradientTransform="translate(149.617 54.9757) rotate(-174.888) scale(72.8702 57.088)">
<stop stop-color="#EDEDED"/>
<stop offset="0.1294" stop-color="#F3F3F3" stop-opacity="0.8599"/>
<stop offset="0.4559" stop-color="#FCFCFC" stop-opacity="0.5064"/>
<stop offset="0.9235" stop-color="white" stop-opacity="0"/>
</radialGradient>
<linearGradient id="paint9_linear" x1="215.974" y1="90.6959" x2="215.974" y2="258.876" gradientUnits="userSpaceOnUse">
<stop stop-color="#0884A3"/>
<stop offset="1" stop-color="#00415C"/>
</linearGradient>
<linearGradient id="paint10_linear" x1="215.976" y1="41.9239" x2="215.976" y2="314.255" gradientUnits="userSpaceOnUse">
<stop stop-color="#9DB1BE"/>
<stop offset="0.2408" stop-color="#BFC8E2"/>
<stop offset="0.3246" stop-color="#F9F9F9"/>
<stop offset="0.4031" stop-color="#BFC8E2"/>
<stop offset="0.4574" stop-color="#7F90A5"/>
<stop offset="0.4921" stop-color="#546A7B"/>
<stop offset="0.6283" stop-color="#BFC8E2"/>
<stop offset="0.8482" stop-color="#7992A2"/>
<stop offset="1" stop-color="#7982A2"/>
</linearGradient>
<linearGradient id="paint11_linear" x1="217.059" y1="173.73" x2="184.845" y2="132.316" gradientUnits="userSpaceOnUse">
<stop stop-color="white" stop-opacity="0"/>
<stop offset="1" stop-color="#CFD5E0"/>
</linearGradient>
<radialGradient id="paint12_radial" cx="0" cy="0" r="1" gradientUnits="userSpaceOnUse" gradientTransform="translate(210.454 100.857) scale(91.2365 91.5596)">
<stop stop-color="#FFFEF2"/>
<stop offset="0.2995" stop-color="#FBFBF1"/>
<stop offset="0.6043" stop-color="#EFF0EF"/>
<stop offset="0.9107" stop-color="#DADFEC"/>
<stop offset="1" stop-color="#D3D9EB"/>
</radialGradient>
</defs>
</svg>
