<svg width="428" height="349" viewBox="0 0 428 349" fill="none" xmlns="http://www.w3.org/2000/svg">
<path d="M73.969 215.828C73.969 215.828 51.5232 252.565 0 280.627C0 280.627 21.9356 289.811 48.9725 289.301L50.5029 341.345C50.5029 341.345 98.4552 321.956 138.756 271.953L108.658 215.318L73.969 215.828Z" fill="url(#paint0_linear)"/>
<path d="M31.1189 260.216C31.1189 260.216 36.2202 269.4 43.8722 276.033C51.5242 282.666 59.6863 300.524 64.2774 308.688C68.8686 316.851 72.9497 329.607 72.9497 329.607L78.051 326.546C78.051 326.546 79.5814 319.402 70.9092 306.136C62.2369 292.36 53.0546 286.237 47.9533 276.033C42.852 265.828 35.2 257.665 35.2 257.665L31.1189 260.216Z" fill="#E625A6"/>
<path d="M354.031 215.828C354.031 215.828 376.477 252.564 428 280.627C428 280.627 406.064 289.811 379.027 289.301L377.497 341.344C377.497 341.344 329.545 321.956 289.244 271.953L319.342 215.317L354.031 215.828Z" fill="url(#paint1_linear)"/>
<path d="M396.881 260.216C396.881 260.216 391.78 269.4 384.128 276.033C376.476 282.666 368.314 300.524 363.722 308.688C359.131 316.851 355.05 329.607 355.05 329.607L349.949 326.546C349.949 326.546 348.418 319.402 357.091 306.136C365.763 292.36 374.945 286.237 380.046 276.033C385.148 265.828 392.8 257.665 392.8 257.665L396.881 260.216Z" fill="#E625A6"/>
<path d="M215.785 349C303.687 349 374.946 277.727 374.946 189.808C374.946 101.889 303.687 30.6162 215.785 30.6162C127.883 30.6162 56.6241 101.889 56.6241 189.808C56.6241 277.727 127.883 349 215.785 349Z" fill="url(#paint2_linear)"/>
<path d="M215.787 345.935C301.999 345.935 371.887 276.033 371.887 189.804C371.887 103.576 301.999 33.6738 215.787 33.6738C129.575 33.6738 59.6869 103.576 59.6869 189.804C59.6869 276.033 129.575 345.935 215.787 345.935Z" fill="url(#paint3_linear)"/>
<path d="M215.787 344.403C130.085 344.403 60.1971 275.012 59.6869 189.293C59.6869 189.803 59.6869 189.803 59.6869 190.313C59.6869 276.542 129.575 346.444 215.787 346.444C301.999 346.444 371.887 276.542 371.887 190.313C371.887 189.803 371.887 189.803 371.887 189.293C371.377 275.012 301.489 344.403 215.787 344.403Z" fill="#B6713B"/>
<path d="M215.785 313.279C283.965 313.279 339.236 257.997 339.236 189.803C339.236 121.609 283.965 66.3271 215.785 66.3271C147.604 66.3271 92.3332 121.609 92.3332 189.803C92.3332 257.997 147.604 313.279 215.785 313.279Z" fill="url(#paint4_linear)"/>
<path d="M215.784 311.238C282.838 311.238 337.195 256.87 337.195 189.803C337.195 122.736 282.838 68.3682 215.784 68.3682C148.731 68.3682 94.3731 122.736 94.3731 189.803C94.3731 256.87 148.731 311.238 215.784 311.238Z" fill="url(#paint5_linear)"/>
<path d="M215.785 304.605C279.176 304.605 330.564 253.207 330.564 189.803C330.564 126.4 279.176 75.0015 215.785 75.0015C152.394 75.0015 101.005 126.4 101.005 189.803C101.005 253.207 152.394 304.605 215.785 304.605Z" fill="url(#paint6_linear)"/>
<path d="M215.787 301.544C277.487 301.544 327.506 251.516 327.506 189.804C327.506 128.091 277.487 78.0635 215.787 78.0635C154.086 78.0635 104.068 128.091 104.068 189.804C104.068 251.516 154.086 301.544 215.787 301.544Z" fill="url(#paint7_radial)"/>
<path d="M52.034 61.2255C73.4595 22.9582 132.125 -4.08404 182.628 0.508034C233.13 5.10011 257.107 39.2855 235.681 77.5528C214.256 115.31 155.591 142.862 105.088 138.27C54.5846 133.678 30.6085 98.9825 52.034 61.2255Z" fill="url(#paint8_radial)" fill-opacity="0.4"/>
<path d="M173.956 259.704C168.855 259.704 164.264 255.622 163.754 250.52C163.754 250.01 163.754 245.418 163.754 244.397V243.887V243.377L170.385 205.62L140.798 176.537C138.757 174.496 137.737 171.945 137.737 168.373C137.737 167.863 137.737 167.353 137.737 166.842C137.227 164.291 137.737 161.23 139.267 159.189C140.798 156.638 143.348 155.617 145.899 155.107L187.73 148.984L206.605 111.227C208.135 107.656 211.706 105.615 215.787 105.615C219.868 105.615 222.929 107.656 224.969 111.227L243.844 148.984L285.675 155.107C288.736 155.617 290.776 157.148 292.307 159.189C293.837 161.23 294.347 164.291 293.837 166.842C293.837 167.353 293.837 167.863 293.837 168.883C293.837 172.455 292.817 175.006 290.776 176.537L261.189 205.62L267.82 243.377C267.82 243.887 267.82 244.908 267.82 245.928C267.82 247.459 267.82 250.52 267.82 251.541C266.8 256.133 262.719 259.704 258.128 259.704C256.597 259.704 255.067 259.194 253.537 258.684L216.297 238.785L179.058 258.684C177.017 259.194 175.487 259.704 173.956 259.704Z" fill="url(#paint9_linear)"/>
<path d="M222.926 116.332L242.311 155.11L285.162 159.192C289.243 159.702 292.304 164.294 292.304 168.376C292.304 170.417 291.793 172.968 289.753 175.009L258.635 205.112L266.287 245.931C266.287 246.951 266.287 250.013 266.287 251.033C265.267 256.135 259.655 259.197 254.554 256.646L216.294 236.747L178.034 256.646C172.933 259.707 166.301 255.625 166.301 250.013C166.301 249.502 166.301 244.91 166.301 244.4L173.953 205.112L142.835 175.009C140.795 172.968 140.285 170.417 140.285 168.376C140.285 164.294 143.345 159.702 147.426 159.192L190.277 155.11L209.662 116.332C211.703 110.21 220.375 110.21 222.926 116.332Z" fill="#93492F"/>
<path d="M265.779 248.993C264.759 254.096 259.147 257.158 254.046 254.606L215.786 234.704L177.527 254.606C172.425 257.668 165.793 253.586 165.793 247.972C165.793 247.462 165.793 244.91 165.793 242.359C165.793 245.421 165.793 249.503 165.793 250.013C166.304 255.627 172.425 259.199 177.527 256.647L215.786 236.745L254.046 256.647C259.147 259.199 264.759 256.137 265.779 251.034C265.779 250.524 266.289 244.91 265.779 241.848C266.289 244.91 265.779 248.482 265.779 248.993Z" fill="#625A6B"/>
<path d="M172.934 203.58L141.816 173.477C139.775 171.436 139.265 168.884 139.265 166.844C139.265 165.313 139.265 166.844 139.265 168.884C139.265 171.436 139.775 173.477 141.816 175.517L172.424 205.111L172.934 203.58Z" fill="#625A6B"/>
<path d="M291.796 166.843C291.796 168.884 291.286 171.435 289.245 173.476L258.127 203.58L258.638 205.11L289.245 175.517C291.286 173.476 291.796 171.435 291.796 168.884C291.796 166.843 291.796 165.312 291.796 166.843Z" fill="#625A6B"/>
<path d="M222.927 111.738L242.312 150.516L285.163 156.638C291.795 157.659 294.346 165.823 289.754 170.415L258.636 200.518L265.778 243.378C266.799 250.011 260.167 255.113 254.045 252.052L215.786 232.153L177.526 252.052C171.404 255.113 164.772 250.011 165.793 243.378L172.934 200.518L141.817 170.415C137.225 165.823 139.776 157.659 146.408 156.638L189.259 150.516L208.644 111.738C211.704 106.126 220.377 106.126 222.927 111.738Z" fill="url(#paint10_linear)"/>
<path d="M157.12 185.72C164.772 185.72 186.708 186.231 222.417 178.577C246.903 173.475 262.207 161.229 261.187 157.148C260.167 153.066 242.312 150.515 242.312 150.515L222.927 111.737C219.866 105.614 211.194 105.614 208.133 111.737L188.748 150.515L145.897 156.637C139.266 157.658 136.715 165.822 141.306 170.414L157.12 185.72Z" fill="url(#paint11_linear)"/>
<path d="M172.934 200.01L141.816 169.907C140.286 168.376 139.265 166.845 139.265 164.804C139.265 166.845 139.775 169.396 141.816 170.927L172.424 201.031L172.934 200.01Z" fill="#C37F47"/>
<path d="M254.047 251.036L215.787 231.134L177.527 251.036C172.426 254.098 165.794 250.015 165.794 244.402C165.284 250.526 171.915 255.118 177.527 252.056L215.787 232.154L254.047 252.056C259.658 255.118 266.29 250.526 265.779 244.402C265.779 250.015 259.658 254.098 254.047 251.036Z" fill="#EAAB5A"/>
<path d="M289.755 169.395L258.637 199.499V200.519L289.245 170.416C291.285 168.375 291.796 166.334 291.796 164.293C291.796 166.334 291.285 168.375 289.755 169.395Z" fill="#C37F47"/>
<path d="M259.147 203.069L266.289 245.929C266.289 244.908 266.289 244.398 266.289 243.378L259.147 203.069Z" fill="#BAC4DD"/>
<path d="M146.407 159.19L189.258 153.067L208.643 114.29C211.704 108.167 220.376 108.167 223.437 114.29L242.822 153.067L285.673 159.19C289.754 159.7 292.305 162.762 292.815 166.333C293.325 162.251 290.774 157.659 285.673 157.149L242.822 151.026L223.437 112.249C220.376 106.126 211.704 106.126 208.643 112.249L189.258 151.026L146.407 157.149C141.816 157.659 138.756 162.251 139.266 166.333C140.286 162.762 142.837 159.7 146.407 159.19Z" fill="url(#paint12_radial)"/>
<path d="M172.935 203.58L165.793 243.888C165.793 244.909 165.793 245.419 165.793 246.439L172.935 203.58Z" fill="#BAC4DD"/>
<defs>
<linearGradient id="paint0_linear" x1="112.879" y1="241.402" x2="29.4435" y2="310.59" gradientUnits="userSpaceOnUse">
<stop offset="0.0994764" stop-color="#330022"/>
<stop offset="0.1739" stop-color="#3B0028"/>
<stop offset="0.2906" stop-color="#520038"/>
<stop offset="0.435" stop-color="#760051"/>
<stop offset="0.6014" stop-color="#A90075"/>
<stop offset="0.7841" stop-color="#E900A2"/>
<stop offset="0.8429" stop-color="#FF00B2"/>
</linearGradient>
<linearGradient id="paint1_linear" x1="315.097" y1="241.402" x2="398.531" y2="310.589" gradientUnits="userSpaceOnUse">
<stop offset="0.0994764" stop-color="#330022"/>
<stop offset="0.1739" stop-color="#3B0028"/>
<stop offset="0.2906" stop-color="#520038"/>
<stop offset="0.435" stop-color="#760051"/>
<stop offset="0.6014" stop-color="#A90075"/>
<stop offset="0.7841" stop-color="#E900A2"/>
<stop offset="0.8429" stop-color="#FF00B2"/>
</linearGradient>
<linearGradient id="paint2_linear" x1="215.843" y1="29.0131" x2="215.843" y2="352.051" gradientUnits="userSpaceOnUse">
<stop stop-color="#EEDDA2"/>
<stop offset="0.2408" stop-color="#EED376"/>
<stop offset="0.3637" stop-color="#BE620A"/>
<stop offset="0.3665" stop-color="#BD5F07"/>
<stop offset="0.4466" stop-color="#7D3F12"/>
<stop offset="0.4921" stop-color="#572C19"/>
<stop offset="1" stop-color="#7C3B1F"/>
</linearGradient>
<linearGradient id="paint3_linear" x1="215.845" y1="20.9665" x2="215.845" y2="353.187" gradientUnits="userSpaceOnUse">
<stop stop-color="#BB945E"/>
<stop offset="0.2251" stop-color="#ECAD4C"/>
<stop offset="0.3071" stop-color="#DACFBD"/>
<stop offset="0.3246" stop-color="#D6D6D6"/>
<stop offset="0.4031" stop-color="#ECAD5B"/>
<stop offset="0.4513" stop-color="#B36D3F"/>
<stop offset="0.4921" stop-color="#803426"/>
<stop offset="0.6283" stop-color="#ECAD5B"/>
<stop offset="0.845" stop-color="#863C1E"/>
<stop offset="0.8482" stop-color="#843A1D"/>
<stop offset="1" stop-color="#BD6D07"/>
</linearGradient>
<linearGradient id="paint4_linear" x1="215.843" y1="65.0444" x2="215.843" y2="314.809" gradientUnits="userSpaceOnUse">
<stop stop-color="#FFD58A"/>
<stop offset="0.6604" stop-color="#9D6443"/>
<stop offset="1" stop-color="#69281D"/>
</linearGradient>
<linearGradient id="paint5_linear" x1="215.842" y1="68.6018" x2="215.842" y2="311.869" gradientUnits="userSpaceOnUse">
<stop stop-color="#180000"/>
<stop offset="0.7539" stop-color="#7D2E0B"/>
<stop offset="0.8512" stop-color="#A96230"/>
<stop offset="1" stop-color="#EAAF65"/>
</linearGradient>
<linearGradient id="paint6_linear" x1="215.611" y1="74.3229" x2="216.075" y2="305.853" gradientUnits="userSpaceOnUse">
<stop stop-color="#211E2F"/>
<stop offset="1" stop-color="#1C1F2E"/>
</linearGradient>
<radialGradient id="paint7_radial" cx="0" cy="0" r="1" gradientUnits="userSpaceOnUse" gradientTransform="translate(202.237 147.79) scale(147.34 147.369)">
<stop stop-color="#515078"/>
<stop offset="0.2408" stop-color="#393A58"/>
<stop offset="0.5131" stop-color="#373A59"/>
<stop offset="0.7749" stop-color="#36324D"/>
<stop offset="1" stop-color="#1F1D2B"/>
</radialGradient>
<radialGradient id="paint8_radial" cx="0" cy="0" r="1" gradientUnits="userSpaceOnUse" gradientTransform="translate(144.055 69.261) rotate(-174.905) scale(92.2276 72.0159)">
<stop stop-color="#D5D5D5"/>
<stop offset="0.0915563" stop-color="#DDDDDD" stop-opacity="0.9009"/>
<stop offset="0.3556" stop-color="#F0F0F0" stop-opacity="0.6149"/>
<stop offset="0.6289" stop-color="#FBFBFB" stop-opacity="0.319"/>
<stop offset="0.9235" stop-color="white" stop-opacity="0"/>
</radialGradient>
<linearGradient id="paint9_linear" x1="215.845" y1="101.423" x2="215.845" y2="269.242" gradientUnits="userSpaceOnUse">
<stop stop-color="#36324C"/>
<stop offset="1" stop-color="#1C1F2E"/>
</linearGradient>
<linearGradient id="paint10_linear" x1="215.844" y1="52.7561" x2="215.844" y2="324.502" gradientUnits="userSpaceOnUse">
<stop stop-color="#BBA87D"/>
<stop offset="0.2251" stop-color="#ECAD4C"/>
<stop offset="0.3071" stop-color="#DACFBD"/>
<stop offset="0.3246" stop-color="#D6D6D6"/>
<stop offset="0.4031" stop-color="#ECAD5B"/>
<stop offset="0.4513" stop-color="#B36D3F"/>
<stop offset="0.4921" stop-color="#803426"/>
<stop offset="0.6283" stop-color="#ECAD5B"/>
<stop offset="0.845" stop-color="#863C1E"/>
<stop offset="0.8482" stop-color="#843A1D"/>
<stop offset="1" stop-color="#BD6D07"/>
</linearGradient>
<linearGradient id="paint11_linear" x1="220.61" y1="187.904" x2="184.809" y2="142.85" gradientUnits="userSpaceOnUse">
<stop stop-color="white" stop-opacity="0"/>
<stop offset="1" stop-color="#EAAA59"/>
</linearGradient>
<radialGradient id="paint12_radial" cx="0" cy="0" r="1" gradientUnits="userSpaceOnUse" gradientTransform="translate(210.316 111.562) scale(91.3456 91.3634)">
<stop stop-color="#FFFEF2"/>
<stop offset="0.206" stop-color="#FEFBEE"/>
<stop offset="0.4158" stop-color="#FBF4E2"/>
<stop offset="0.6274" stop-color="#F7E7CD"/>
<stop offset="0.8388" stop-color="#F0D5B1"/>
<stop offset="1" stop-color="#EAC496"/>
</radialGradient>
</defs>
</svg>
