<svg width="520" height="438" viewBox="0 0 520 438" fill="none" xmlns="http://www.w3.org/2000/svg">
<path d="M89.7621 275.485C89.7621 275.485 62.5239 319.976 0 353.962C0 353.962 26.6191 365.084 59.4287 364.466L61.2858 427.495C61.2858 427.495 119.476 404.013 168.381 343.457L131.857 274.867L89.7621 275.485Z" fill="url(#paint0_linear)"/>
<path d="M37.7626 329.86C37.7626 329.86 43.9531 340.983 53.2388 349.016C62.5245 357.049 72.4293 378.676 78.0008 388.563C83.5722 398.45 88.5246 413.898 88.5246 413.898L94.7151 410.19C94.7151 410.19 96.5722 401.539 86.0484 385.473C75.5246 368.789 64.3817 361.374 58.1912 349.016C52.0007 336.657 42.715 326.771 42.715 326.771L37.7626 329.86Z" fill="#E62525"/>
<path d="M430.238 275.485C430.238 275.485 457.476 319.976 520 353.962C520 353.962 493.381 365.084 460.571 364.466L458.714 427.495C458.714 427.495 400.524 404.013 351.619 343.457L388.143 274.867L430.238 275.485Z" fill="url(#paint1_linear)"/>
<path d="M482.237 329.861C482.237 329.861 476.046 340.983 466.761 349.016C457.475 357.049 447.57 378.677 441.999 388.563C436.427 398.45 431.475 413.898 431.475 413.898L425.284 410.191C425.284 410.191 423.427 401.54 433.951 385.474C444.475 368.79 455.618 361.375 461.808 349.016C467.999 336.658 477.284 326.771 477.284 326.771L482.237 329.861Z" fill="#E62525"/>
<path d="M208 331.716C201.809 331.716 196.238 326.772 195.619 320.593C195.619 319.975 195.619 314.414 195.619 313.178V312.56V311.942L203.666 266.216L167.762 230.994C165.285 228.522 164.047 225.433 164.047 221.107C164.047 220.489 164.047 219.871 164.047 219.253C163.428 216.164 164.047 212.456 165.904 209.985C167.762 206.895 170.857 205.659 173.952 205.041L224.714 197.626L247.619 151.9C249.476 147.574 253.809 145.103 258.762 145.103C263.714 145.103 267.429 147.574 269.905 151.9L292.81 197.626L343.572 205.041C347.286 205.659 349.762 207.513 351.619 209.985C353.476 212.456 354.095 216.164 353.476 219.253C353.476 219.871 353.476 220.489 353.476 221.725C353.476 226.051 352.238 229.14 349.762 230.994L313.857 266.216L321.905 311.942C321.905 312.56 321.905 313.796 321.905 315.032C321.905 316.886 321.905 320.593 321.905 321.829C320.667 327.39 315.714 331.716 310.143 331.716C308.286 331.716 306.429 331.098 304.571 330.48L259.381 306.381L214.19 330.48C211.714 331.098 209.857 331.716 208 331.716Z" fill="url(#paint2_linear)"/>
<path d="M268.049 158.696L291.573 205.658L343.573 210.602C348.525 211.22 352.24 216.781 352.24 221.724C352.24 224.196 351.621 227.286 349.144 229.757L311.382 266.215L320.668 315.649C320.668 316.885 320.668 320.592 320.668 321.828C319.43 328.007 312.621 331.715 306.43 328.625L260.001 304.526L213.573 328.625C207.382 332.333 199.335 327.389 199.335 320.592C199.335 319.974 199.335 314.413 199.335 313.795L208.62 266.215L170.858 229.757C168.382 227.286 167.763 224.196 167.763 221.724C167.763 216.781 171.477 211.22 176.43 210.602L228.43 205.658L251.954 158.696C253.811 151.281 264.335 151.281 268.049 158.696Z" fill="url(#paint3_radial)"/>
<path d="M320.049 319.358C318.811 325.537 312.001 329.244 305.811 326.155L259.382 302.056L212.334 326.155C206.144 329.862 198.096 324.919 198.096 318.122C198.096 317.504 198.096 314.414 198.096 311.325C198.096 315.032 198.096 319.975 198.096 320.593C198.715 327.391 206.144 331.716 212.334 328.626L258.763 304.527L305.192 328.626C311.382 331.716 318.192 328.009 319.43 321.829C319.43 321.211 320.049 314.414 319.43 310.707C320.049 313.796 320.049 318.74 320.049 319.358Z" fill="#BB4194"/>
<path d="M207.382 264.363L169.62 227.287C167.144 224.815 166.525 221.726 166.525 219.254C166.525 217.4 166.525 219.254 166.525 221.726C166.525 224.815 167.144 227.287 169.62 229.759L206.763 265.598L207.382 264.363Z" fill="#BB4194"/>
<path d="M351.618 219.874C351.618 222.346 350.999 225.435 348.523 227.907L310.761 264.365L311.38 266.219L348.523 230.379C350.999 227.907 351.618 225.436 351.618 222.346C351.618 219.874 351.618 218.02 351.618 219.874Z" fill="#BB4194"/>
<path d="M268.05 153.142L291.574 200.104L343.574 207.519C351.622 208.755 354.717 218.642 349.145 224.203L311.383 260.661L320.05 312.566C321.288 320.599 313.241 326.779 305.812 323.071L259.383 298.972L212.955 323.071C205.526 326.779 197.478 320.599 198.716 312.566L207.383 260.661L169.621 224.203C164.05 218.642 167.145 208.755 175.193 207.519L227.193 200.104L250.717 153.142C253.812 145.727 264.336 145.727 268.05 153.142Z" fill="url(#paint4_linear)"/>
<path d="M188.192 242.741C197.478 242.741 224.097 243.359 267.43 234.09C297.144 227.911 315.716 213.081 314.478 208.137C313.24 203.194 291.573 200.104 291.573 200.104L268.049 153.142C264.335 145.727 253.811 145.727 250.097 153.142L226.573 200.104L174.573 207.519C166.525 208.755 163.43 218.642 169.001 224.203L188.192 242.741Z" fill="url(#paint5_linear)"/>
<path d="M207.382 259.419L169.62 222.962C167.763 221.108 166.525 219.254 166.525 216.783C166.525 219.254 167.144 222.344 169.62 224.198L206.763 260.655L207.382 259.419Z" fill="#FF9E00"/>
<path d="M305.192 321.831L258.763 297.732L212.334 321.831C206.144 325.539 198.096 320.596 198.096 313.798C197.477 321.214 205.525 326.775 212.334 323.067L258.763 298.968L305.192 323.067C312.001 326.775 320.049 321.214 319.43 313.798C319.43 320.596 312.001 324.921 305.192 321.831Z" fill="#FCF290"/>
<path d="M348.523 222.962L310.761 259.419V260.655L347.904 224.198C350.38 221.726 350.999 219.254 350.999 216.783C351.618 219.254 350.38 221.108 348.523 222.962Z" fill="#FF9E00"/>
<path d="M311.381 263.747L320.047 315.652C320.047 314.416 320.047 313.798 320.047 312.563L311.381 263.747Z" fill="url(#paint6_linear)"/>
<path d="M175.191 210.609L227.191 203.194L250.715 156.232C254.43 148.816 264.953 148.816 268.668 156.232L292.191 203.194L344.192 210.609C349.144 211.227 352.239 214.934 352.858 219.26C353.477 214.316 350.382 208.755 344.192 208.137L292.191 200.722L268.049 153.142C264.334 145.727 253.81 145.727 250.096 153.142L226.572 200.104L174.572 207.519C169.001 208.137 165.286 213.698 165.906 218.642C167.144 214.934 170.239 211.227 175.191 210.609Z" fill="url(#paint7_radial)"/>
<path d="M207.382 263.747L198.715 312.563C198.715 313.798 198.715 314.416 198.715 315.652L207.382 263.747Z" fill="url(#paint8_linear)"/>
<path d="M258.763 438C365.433 438 451.906 351.684 451.906 245.208C451.906 138.731 365.433 52.415 258.763 52.415C152.093 52.415 65.6197 138.731 65.6197 245.208C65.6197 351.684 152.093 438 258.763 438Z" fill="url(#paint9_linear)"/>
<path d="M258.764 434.294C363.382 434.294 448.193 349.638 448.193 245.209C448.193 140.781 363.382 56.1245 258.764 56.1245C154.145 56.1245 69.3346 140.781 69.3346 245.209C69.3346 349.638 154.145 434.294 258.764 434.294Z" fill="url(#paint10_linear)"/>
<path d="M258.764 432.439C154.763 432.439 69.9537 348.402 69.3346 244.59C69.3346 245.208 69.3346 245.208 69.3346 245.826C69.3346 350.255 154.144 434.911 258.764 434.911C363.383 434.911 448.193 350.255 448.193 245.826C448.193 245.208 448.193 245.208 448.193 244.59C447.574 348.402 363.383 432.439 258.764 432.439Z" fill="#FCF290"/>
<path d="M258.763 394.745C341.501 394.745 408.573 327.795 408.573 245.208C408.573 162.62 341.501 95.6699 258.763 95.6699C176.025 95.6699 108.953 162.62 108.953 245.208C108.953 327.795 176.025 394.745 258.763 394.745Z" fill="url(#paint11_linear)"/>
<path d="M258.762 392.277C340.133 392.277 406.096 326.433 406.096 245.211C406.096 163.989 340.133 98.145 258.762 98.145C177.392 98.145 111.429 163.989 111.429 245.211C111.429 326.433 177.392 392.277 258.762 392.277Z" fill="url(#paint12_linear)"/>
<path d="M258.764 384.243C335.69 384.243 398.05 321.996 398.05 245.21C398.05 168.424 335.69 106.177 258.764 106.177C181.839 106.177 119.478 168.424 119.478 245.21C119.478 321.996 181.839 384.243 258.764 384.243Z" fill="url(#paint13_linear)"/>
<path d="M258.762 380.534C333.636 380.534 394.334 319.947 394.334 245.209C394.334 170.471 333.636 109.883 258.762 109.883C183.888 109.883 123.19 170.471 123.19 245.209C123.19 319.947 183.888 380.534 258.762 380.534Z" fill="url(#paint14_radial)"/>
<path d="M93.477 70.9539C118.239 27.0813 186.334 -4.4329 245.144 0.510492C303.954 5.45389 331.811 45.619 306.43 89.4916C281.668 133.364 213.572 164.878 154.763 159.935C95.9532 154.992 68.715 115.444 93.477 70.9539Z" fill="url(#paint15_radial)" fill-opacity="0.4"/>
<path d="M208 331.716C201.809 331.716 196.238 326.772 195.619 320.593C195.619 319.975 195.619 314.414 195.619 313.178V312.56V311.942L203.666 266.216L167.762 230.994C165.285 228.522 164.047 225.433 164.047 221.107C164.047 220.489 164.047 219.871 164.047 219.253C163.428 216.164 164.047 212.456 165.904 209.985C167.762 206.895 170.857 205.659 173.952 205.041L224.714 197.626L247.619 151.9C249.476 147.574 253.809 145.103 258.762 145.103C263.714 145.103 267.429 147.574 269.905 151.9L292.81 197.626L343.572 205.041C347.286 205.659 349.762 207.513 351.619 209.985C353.476 212.456 354.095 216.164 353.476 219.253C353.476 219.871 353.476 220.489 353.476 221.725C353.476 226.051 352.238 229.14 349.762 230.994L313.857 266.216L321.905 311.942C321.905 312.56 321.905 313.796 321.905 315.032C321.905 316.886 321.905 320.593 321.905 321.829C320.667 327.39 315.714 331.716 310.143 331.716C308.286 331.716 306.429 331.098 304.571 330.48L259.381 306.381L214.19 330.48C211.714 331.098 209.857 331.716 208 331.716Z" fill="url(#paint16_linear)"/>
<path d="M268.049 158.696L291.573 205.658L343.573 210.602C348.525 211.22 352.24 216.781 352.24 221.724C352.24 224.196 351.621 227.286 349.144 229.757L311.382 266.215L320.668 315.649C320.668 316.885 320.668 320.592 320.668 321.828C319.43 328.007 312.621 331.715 306.43 328.625L260.001 304.526L213.573 328.625C207.382 332.333 199.335 327.389 199.335 320.592C199.335 319.974 199.335 314.413 199.335 313.795L208.62 266.215L170.858 229.757C168.382 227.286 167.763 224.196 167.763 221.724C167.763 216.781 171.477 211.22 176.43 210.602L228.43 205.658L251.954 158.696C253.811 151.281 264.335 151.281 268.049 158.696Z" fill="url(#paint17_radial)"/>
<path d="M320.049 319.358C318.811 325.537 312.001 329.244 305.811 326.155L259.382 302.056L212.334 326.155C206.144 329.862 198.096 324.919 198.096 318.122C198.096 317.504 198.096 314.414 198.096 311.325C198.096 315.032 198.096 319.975 198.096 320.593C198.715 327.391 206.144 331.716 212.334 328.626L258.763 304.527L305.192 328.626C311.382 331.716 318.192 328.009 319.43 321.829C319.43 321.211 320.049 314.414 319.43 310.707C320.049 313.796 320.049 318.74 320.049 319.358Z" fill="#BB4194"/>
<path d="M207.382 264.363L169.62 227.287C167.144 224.815 166.525 221.726 166.525 219.254C166.525 217.4 166.525 219.254 166.525 221.726C166.525 224.815 167.144 227.287 169.62 229.759L206.763 265.598L207.382 264.363Z" fill="#BB4194"/>
<path d="M351.618 219.874C351.618 222.346 350.999 225.435 348.523 227.907L310.761 264.365L311.38 266.219L348.523 230.379C350.999 227.907 351.618 225.436 351.618 222.346C351.618 219.874 351.618 218.02 351.618 219.874Z" fill="#BB4194"/>
<path d="M268.05 153.142L291.574 200.104L343.574 207.519C351.622 208.755 354.717 218.642 349.145 224.203L311.383 260.661L320.05 312.566C321.288 320.599 313.241 326.779 305.812 323.071L259.383 298.972L212.955 323.071C205.526 326.779 197.478 320.599 198.716 312.566L207.383 260.661L169.621 224.203C164.05 218.642 167.145 208.755 175.193 207.519L227.193 200.104L250.717 153.142C253.812 145.727 264.336 145.727 268.05 153.142Z" fill="url(#paint18_linear)"/>
<path d="M188.192 242.741C197.478 242.741 224.097 243.359 267.43 234.09C297.144 227.911 315.716 213.081 314.478 208.137C313.24 203.194 291.573 200.104 291.573 200.104L268.049 153.142C264.335 145.727 253.811 145.727 250.097 153.142L226.573 200.104L174.573 207.519C166.525 208.755 163.43 218.642 169.001 224.203L188.192 242.741Z" fill="url(#paint19_linear)"/>
<path d="M207.382 259.419L169.62 222.962C167.763 221.108 166.525 219.254 166.525 216.783C166.525 219.254 167.144 222.344 169.62 224.198L206.763 260.655L207.382 259.419Z" fill="#FF9E00"/>
<path d="M305.192 321.831L258.763 297.732L212.334 321.831C206.144 325.539 198.096 320.596 198.096 313.798C197.477 321.214 205.525 326.775 212.334 323.067L258.763 298.968L305.192 323.067C312.001 326.775 320.049 321.214 319.43 313.798C319.43 320.596 312.001 324.921 305.192 321.831Z" fill="#FCF290"/>
<path d="M348.523 222.962L310.761 259.419V260.655L347.904 224.198C350.38 221.726 350.999 219.254 350.999 216.783C351.618 219.254 350.38 221.108 348.523 222.962Z" fill="#FF9E00"/>
<path d="M311.381 263.747L320.047 315.652C320.047 314.416 320.047 313.798 320.047 312.563L311.381 263.747Z" fill="url(#paint20_linear)"/>
<path d="M175.191 210.609L227.191 203.194L250.715 156.232C254.43 148.816 264.953 148.816 268.668 156.232L292.191 203.194L344.192 210.609C349.144 211.227 352.239 214.934 352.858 219.26C353.477 214.316 350.382 208.755 344.192 208.137L292.191 200.722L268.049 153.142C264.334 145.727 253.81 145.727 250.096 153.142L226.572 200.104L174.572 207.519C169.001 208.137 165.286 213.698 165.906 218.642C167.144 214.934 170.239 211.227 175.191 210.609Z" fill="url(#paint21_radial)"/>
<path d="M207.382 263.747L198.715 312.563C198.715 313.798 198.715 314.416 198.715 315.652L207.382 263.747Z" fill="url(#paint22_linear)"/>
<defs>
<linearGradient id="paint0_linear" x1="137.179" y1="306.822" x2="36.0957" y2="390.814" gradientUnits="userSpaceOnUse">
<stop offset="0.0994764" stop-color="#330000"/>
<stop offset="0.1739" stop-color="#3B0000"/>
<stop offset="0.2906" stop-color="#520001"/>
<stop offset="0.435" stop-color="#760003"/>
<stop offset="0.6014" stop-color="#A90005"/>
<stop offset="0.7841" stop-color="#E90007"/>
<stop offset="0.8429" stop-color="#FF0008"/>
</linearGradient>
<linearGradient id="paint1_linear" x1="382.57" y1="306.823" x2="483.655" y2="390.814" gradientUnits="userSpaceOnUse">
<stop offset="0.0994764" stop-color="#330000"/>
<stop offset="0.1739" stop-color="#3B0000"/>
<stop offset="0.2906" stop-color="#520001"/>
<stop offset="0.435" stop-color="#760003"/>
<stop offset="0.6014" stop-color="#A90005"/>
<stop offset="0.7841" stop-color="#E90007"/>
<stop offset="0.8429" stop-color="#FF0008"/>
</linearGradient>
<linearGradient id="paint2_linear" x1="259.057" y1="75.5978" x2="259.057" y2="423.004" gradientUnits="userSpaceOnUse">
<stop stop-color="#9200B3"/>
<stop offset="1" stop-color="#2D004F"/>
</linearGradient>
<radialGradient id="paint3_radial" cx="0" cy="0" r="1" gradientUnits="userSpaceOnUse" gradientTransform="translate(248.189 200.943) scale(129.306 129.071)">
<stop stop-color="#FF9B00"/>
<stop offset="0.2333" stop-color="#FF9700"/>
<stop offset="0.4708" stop-color="#FF8B00"/>
<stop offset="0.7104" stop-color="#FF7600"/>
<stop offset="0.9499" stop-color="#FF5A00"/>
<stop offset="1" stop-color="#FF5300"/>
</radialGradient>
<linearGradient id="paint4_linear" x1="259.06" y1="81.5312" x2="259.06" y2="410.635" gradientUnits="userSpaceOnUse">
<stop stop-color="#EF901C"/>
<stop offset="0.1729" stop-color="#F5CB20"/>
<stop offset="0.2408" stop-color="#F8E421"/>
<stop offset="0.3071" stop-color="#FEF892"/>
<stop offset="0.3246" stop-color="#FFFDB1"/>
<stop offset="0.4031" stop-color="#F8E421"/>
<stop offset="0.4525" stop-color="#EDA40F"/>
<stop offset="0.4921" stop-color="#E36E00"/>
<stop offset="0.6283" stop-color="#F8E421"/>
<stop offset="0.8482" stop-color="#FF9900"/>
<stop offset="0.961" stop-color="#FFD400"/>
<stop offset="1" stop-color="#FFEA00"/>
</linearGradient>
<linearGradient id="paint5_linear" x1="264.843" y1="245.206" x2="221.506" y2="190.557" gradientUnits="userSpaceOnUse">
<stop stop-color="#4F4800"/>
<stop offset="0.2226" stop-color="#4B4400"/>
<stop offset="0.4492" stop-color="#3F3900"/>
<stop offset="0.6776" stop-color="#2A2700"/>
<stop offset="0.9062" stop-color="#0E0D00"/>
<stop offset="1"/>
</linearGradient>
<linearGradient id="paint6_linear" x1="315.491" y1="265.413" x2="315.491" y2="321.932" gradientUnits="userSpaceOnUse">
<stop stop-color="#FF9000"/>
<stop offset="0.2865" stop-color="#FF9401"/>
<stop offset="0.5782" stop-color="#FFA005"/>
<stop offset="0.8714" stop-color="#FFB50C"/>
<stop offset="1" stop-color="#FFC010"/>
</linearGradient>
<radialGradient id="paint7_radial" cx="0" cy="0" r="1" gradientUnits="userSpaceOnUse" gradientTransform="translate(252.35 152.75) scale(110.849 110.647)">
<stop stop-color="#FFFEF2"/>
<stop offset="0.1571" stop-color="#FFFEEE"/>
<stop offset="0.3172" stop-color="#FFFCE2"/>
<stop offset="0.4786" stop-color="#FFFACD"/>
<stop offset="0.6411" stop-color="#FFF7B1"/>
<stop offset="0.8043" stop-color="#FFF48C"/>
<stop offset="0.9661" stop-color="#FFEF5F"/>
<stop offset="1" stop-color="#FFEE55"/>
</radialGradient>
<linearGradient id="paint8_linear" x1="202.625" y1="265.413" x2="202.625" y2="321.932" gradientUnits="userSpaceOnUse">
<stop stop-color="#FF9000"/>
<stop offset="0.2865" stop-color="#FF9401"/>
<stop offset="0.5782" stop-color="#FFA005"/>
<stop offset="0.8714" stop-color="#FFB50C"/>
<stop offset="1" stop-color="#FFC010"/>
</linearGradient>
<linearGradient id="paint9_linear" x1="259.058" y1="50.5946" x2="259.058" y2="441.816" gradientUnits="userSpaceOnUse">
<stop stop-color="#FFFA75"/>
<stop offset="0.2408" stop-color="#FFF700"/>
<stop offset="0.3613" stop-color="#FFE700"/>
<stop offset="0.4585" stop-color="#F4A700"/>
<stop offset="0.4921" stop-color="#F09000"/>
<stop offset="1" stop-color="#9E4C00"/>
</linearGradient>
<linearGradient id="paint10_linear" x1="259.059" y1="40.8568" x2="259.059" y2="443.198" gradientUnits="userSpaceOnUse">
<stop stop-color="#EF901C"/>
<stop offset="0.1729" stop-color="#F5CB20"/>
<stop offset="0.2408" stop-color="#F8E421"/>
<stop offset="0.3071" stop-color="#FEF892"/>
<stop offset="0.3246" stop-color="#FFFDB1"/>
<stop offset="0.4031" stop-color="#F8E421"/>
<stop offset="0.4525" stop-color="#EDA40F"/>
<stop offset="0.4921" stop-color="#E36E00"/>
<stop offset="0.6283" stop-color="#F8E421"/>
<stop offset="0.8482" stop-color="#FF9900"/>
<stop offset="0.961" stop-color="#FFD400"/>
<stop offset="1" stop-color="#FFEA00"/>
</linearGradient>
<linearGradient id="paint11_linear" x1="259.058" y1="94.2376" x2="259.058" y2="396.72" gradientUnits="userSpaceOnUse">
<stop stop-color="#FFF700"/>
<stop offset="0.8548" stop-color="#EE8600"/>
<stop offset="1" stop-color="#EB7200"/>
</linearGradient>
<linearGradient id="paint12_linear" x1="259.058" y1="98.5491" x2="259.058" y2="393.164" gradientUnits="userSpaceOnUse">
<stop stop-color="#A13B00"/>
<stop offset="0.1491" stop-color="#AB4500"/>
<stop offset="0.4051" stop-color="#C46100"/>
<stop offset="0.7353" stop-color="#ED8D00"/>
<stop offset="0.7539" stop-color="#F09000"/>
<stop offset="0.7808" stop-color="#F29A00"/>
<stop offset="0.9895" stop-color="#FFE700"/>
<stop offset="1" stop-color="#FEE200"/>
</linearGradient>
<linearGradient id="paint13_linear" x1="258.778" y1="105.477" x2="259.339" y2="385.875" gradientUnits="userSpaceOnUse">
<stop stop-color="#9200B3"/>
<stop offset="1" stop-color="#2D004F"/>
</linearGradient>
<radialGradient id="paint14_radial" cx="0" cy="0" r="1" gradientUnits="userSpaceOnUse" gradientTransform="translate(242.544 194.449) scale(178.799 178.474)">
<stop stop-color="#EB9FFA"/>
<stop offset="0.2356" stop-color="#C55EEE"/>
<stop offset="0.5131" stop-color="#A804B2"/>
<stop offset="0.7749" stop-color="#8B00BD"/>
<stop offset="0.9755" stop-color="#580082"/>
<stop offset="1" stop-color="#51007A"/>
</radialGradient>
<radialGradient id="paint15_radial" cx="0" cy="0" r="1" gradientUnits="userSpaceOnUse" gradientTransform="translate(199.92 80.7455) rotate(-174.915) scale(107.055 83.4283)">
<stop stop-color="white"/>
<stop offset="0.9235" stop-color="white" stop-opacity="0"/>
</radialGradient>
<linearGradient id="paint16_linear" x1="259.057" y1="75.5978" x2="259.057" y2="423.004" gradientUnits="userSpaceOnUse">
<stop stop-color="#9200B3"/>
<stop offset="1" stop-color="#2D004F"/>
</linearGradient>
<radialGradient id="paint17_radial" cx="0" cy="0" r="1" gradientUnits="userSpaceOnUse" gradientTransform="translate(248.189 200.943) scale(129.306 129.071)">
<stop stop-color="#FF9B00"/>
<stop offset="0.2333" stop-color="#FF9700"/>
<stop offset="0.4708" stop-color="#FF8B00"/>
<stop offset="0.7104" stop-color="#FF7600"/>
<stop offset="0.9499" stop-color="#FF5A00"/>
<stop offset="1" stop-color="#FF5300"/>
</radialGradient>
<linearGradient id="paint18_linear" x1="259.06" y1="81.5312" x2="259.06" y2="410.635" gradientUnits="userSpaceOnUse">
<stop stop-color="#EF901C"/>
<stop offset="0.1729" stop-color="#F5CB20"/>
<stop offset="0.2408" stop-color="#F8E421"/>
<stop offset="0.3071" stop-color="#FEF892"/>
<stop offset="0.3246" stop-color="#FFFDB1"/>
<stop offset="0.4031" stop-color="#F8E421"/>
<stop offset="0.4525" stop-color="#EDA40F"/>
<stop offset="0.4921" stop-color="#E36E00"/>
<stop offset="0.6283" stop-color="#F8E421"/>
<stop offset="0.8482" stop-color="#FF9900"/>
<stop offset="0.961" stop-color="#FFD400"/>
<stop offset="1" stop-color="#FFEA00"/>
</linearGradient>
<linearGradient id="paint19_linear" x1="264.843" y1="245.206" x2="221.506" y2="190.557" gradientUnits="userSpaceOnUse">
<stop stop-color="white" stop-opacity="0"/>
<stop offset="1" stop-color="#FFF481"/>
</linearGradient>
<linearGradient id="paint20_linear" x1="315.491" y1="265.413" x2="315.491" y2="321.932" gradientUnits="userSpaceOnUse">
<stop stop-color="#FF9000"/>
<stop offset="0.2865" stop-color="#FF9401"/>
<stop offset="0.5782" stop-color="#FFA005"/>
<stop offset="0.8714" stop-color="#FFB50C"/>
<stop offset="1" stop-color="#FFC010"/>
</linearGradient>
<radialGradient id="paint21_radial" cx="0" cy="0" r="1" gradientUnits="userSpaceOnUse" gradientTransform="translate(252.35 152.75) scale(110.849 110.647)">
<stop stop-color="#FFFEF2"/>
<stop offset="0.1571" stop-color="#FFFEEE"/>
<stop offset="0.3172" stop-color="#FFFCE2"/>
<stop offset="0.4786" stop-color="#FFFACD"/>
<stop offset="0.6411" stop-color="#FFF7B1"/>
<stop offset="0.8043" stop-color="#FFF48C"/>
<stop offset="0.9661" stop-color="#FFEF5F"/>
<stop offset="1" stop-color="#FFEE55"/>
</radialGradient>
<linearGradient id="paint22_linear" x1="202.625" y1="265.413" x2="202.625" y2="321.932" gradientUnits="userSpaceOnUse">
<stop stop-color="#FF9000"/>
<stop offset="0.2865" stop-color="#FF9401"/>
<stop offset="0.5782" stop-color="#FFA005"/>
<stop offset="0.8714" stop-color="#FFB50C"/>
<stop offset="1" stop-color="#FFC010"/>
</linearGradient>
</defs>
</svg>
