<svg width="38" height="40" viewBox="0 0 38 40" fill="none" xmlns="http://www.w3.org/2000/svg">
<ellipse cx="19" cy="19.7913" rx="19" ry="19.5672" fill="#8A7831"/>
<path d="M28.3998 14.9432C27.9273 13.5679 27.3197 12.3989 26.4421 11.4361C25.5645 10.4734 24.5519 9.85449 23.3367 9.44189C22.4591 9.16683 21.1765 9.0293 19.4212 9.0293H11.8603V18.4503H9.02499V21.1322H11.8603V30.5532H19.6238C21.1765 30.5532 22.3916 30.4157 23.2692 30.0718C24.4844 29.6592 25.4295 29.1091 26.1721 28.3527C27.1172 27.3899 27.8598 26.1521 28.3323 24.5705C28.7374 23.264 28.9399 21.7511 28.9399 20.0319C29.0749 18.0377 28.8049 16.3185 28.3998 14.9432ZM24.3493 23.7453C24.0793 24.708 23.7418 25.3957 23.2692 25.8083C22.7967 26.2209 22.2566 26.496 21.5815 26.7023C21.0414 26.8398 20.2313 26.9086 19.0837 26.9086H15.9783V21.1322H19.7588V18.4503H15.9783V12.6739H17.801C19.4888 12.6739 20.6364 12.7427 21.1765 12.8802C21.919 13.0865 22.5941 13.3616 23.0667 13.9117C23.5392 14.4618 23.9443 15.0807 24.2143 15.9747C24.4844 16.8687 24.6194 18.1065 24.6194 19.8256C24.7544 21.476 24.6194 22.7826 24.3493 23.7453Z" fill="#07062E"/>
</svg>
