<svg width="38" height="40" viewBox="0 0 38 40" fill="none" xmlns="http://www.w3.org/2000/svg">
<ellipse cx="19" cy="19.7913" rx="19" ry="19.5672" fill="#47C947"/>
<path d="M27.9012 18.8502C27.1543 18.2229 26.2037 17.8744 25.0494 17.8047C25.7284 17.3167 26.2716 16.6197 26.6111 15.8529C26.9506 15.0862 27.0184 14.2497 26.8147 13.483C26.679 12.7162 26.3395 12.0889 25.8642 11.5312C25.3889 10.9736 24.8457 10.6251 24.1667 10.3462C23.5556 10.0674 22.8766 9.99771 22.1298 9.99771C21.5187 9.99771 20.7039 10.1371 19.6854 10.3462L18.8027 6.09424L16.3584 6.65188L17.241 10.9039L15.6114 11.2524L14.7288 7.0004L12.2844 7.55804L13.1671 11.81L12.6918 11.8797L11.7412 12.0889L8.54999 12.7859L9.09317 15.2953L12.2844 14.5982L14.7967 27.0057L11.6054 27.7028L12.1486 30.2122L15.3399 29.5151L16.2904 29.306L16.7657 29.2363L17.6484 33.4883L20.0928 32.9306L19.2101 28.6786L20.8397 28.3301L21.7223 32.5821L24.1667 32.0245L23.284 27.7725C24.5062 27.4937 25.3889 27.2845 25.7963 27.1451C26.7469 26.8663 27.4938 26.3784 28.037 25.8207C28.5802 25.2631 28.9875 24.4963 29.2591 23.6599C29.4628 22.8234 29.5307 21.987 29.327 21.2202C29.1233 20.314 28.648 19.4776 27.9012 18.8502ZM22.6051 13.5527C23.0124 13.8315 23.2161 14.2497 23.3519 14.7377C23.4877 15.2953 23.3519 15.7832 23.0803 16.2015C22.8087 16.6197 22.3334 16.9682 21.7223 17.1076C21.3828 17.247 20.5002 17.4561 19.0743 17.735L16.6978 18.2229L15.8831 14.18L17.9879 13.7618C19.6854 13.4133 20.7039 13.2041 21.1113 13.1344C21.7903 13.2041 22.2656 13.2738 22.6051 13.5527ZM25.321 23.5205C25.0494 23.9387 24.642 24.2872 24.1667 24.4963C23.8272 24.6358 23.0124 24.8449 21.7223 25.1237L18.3274 25.8207L17.3768 21.1505L20.2965 20.5232C21.9261 20.1746 23.0124 20.0352 23.5556 20.1049C24.0988 20.1746 24.5062 20.314 24.8457 20.6626C25.1852 20.9414 25.3889 21.3596 25.5247 21.9173C25.6605 22.5446 25.5926 23.1022 25.321 23.5205Z" fill="#07062E"/>
</svg>
