<svg width="38" height="40" viewBox="0 0 38 40" fill="none" xmlns="http://www.w3.org/2000/svg">
<ellipse cx="19" cy="19.7913" rx="19" ry="19.5672" fill="#FFBC00"/>
<path d="M26.6795 20.7646C26.1198 20.0263 25.3115 19.4894 24.3165 19.2209C25.0627 18.8853 25.6224 18.4155 26.0576 17.7443C26.4929 17.0732 26.6795 16.3349 26.6795 15.5295C26.6795 14.7912 26.4929 14.12 26.182 13.516C25.8089 12.9119 25.4358 12.4421 24.8762 12.1065C24.3787 11.7709 23.7569 11.5025 23.1351 11.3682C22.6376 11.3011 21.8293 11.234 20.8965 11.234V7.07275H18.5958V11.234H17.0413V7.07275H14.7405V11.234H14.3053H13.4347H10.45V13.6502H13.4347V25.7984H10.45V28.2817H13.4347H14.3053H14.7405V32.5101H17.0413V28.2817H18.5958V32.5101H20.8965V28.2817C22.078 28.2817 22.8864 28.2146 23.2595 28.2146C24.1922 28.0804 24.9384 27.8119 25.5602 27.4092C26.182 26.9394 26.6795 26.4024 26.9904 25.6641C27.3635 24.9259 27.55 24.1876 27.55 23.3822C27.55 22.3754 27.2391 21.5029 26.6795 20.7646ZM22.9485 14.7241C23.2595 15.0597 23.3838 15.4624 23.3838 15.9993C23.3838 16.5362 23.1973 17.0061 22.8864 17.3416C22.5755 17.6772 22.078 17.8786 21.5184 17.9457C21.2075 18.0128 20.3991 18.0128 19.0311 18.0128H16.7925V14.0529H18.7202C20.3369 14.0529 21.2696 14.0529 21.6427 14.12C22.2645 14.1871 22.6998 14.3885 22.9485 14.7241ZM23.5704 24.6574C23.2595 24.993 22.8242 25.2614 22.3267 25.3286C22.0158 25.3957 21.2075 25.4628 20.026 25.4628H16.8547V20.8988H19.5907C21.1453 20.8988 22.1402 20.966 22.5755 21.1673C23.0107 21.3015 23.3838 21.57 23.6325 21.9727C23.8813 22.3083 24.0056 22.7781 24.0056 23.2479C24.0056 23.7849 23.8813 24.2547 23.5704 24.6574Z" fill="#07062E"/>
</svg>
