<svg width="38" height="40" viewBox="0 0 38 40" fill="none" xmlns="http://www.w3.org/2000/svg">
<ellipse cx="19" cy="20.1194" rx="19" ry="19.5672" fill="#1F3DA4"/>
<path d="M24.5481 7.76637L21.6699 7.76123C18.4362 7.76123 16.3465 10.1487 16.3465 13.844V16.6485H13.4526C13.2025 16.6485 13 16.8743 13 17.1528V21.2162C13 21.4947 13.2027 21.7202 13.4526 21.7202H16.3465V31.9737C16.3465 32.2521 16.549 32.4776 16.7991 32.4776H20.5749C20.825 32.4776 21.0275 32.2519 21.0275 31.9737V21.7202H24.4112C24.6613 21.7202 24.8638 21.4947 24.8638 21.2162L24.8652 17.1528C24.8652 17.0191 24.8174 16.891 24.7326 16.7964C24.6479 16.7018 24.5324 16.6485 24.4123 16.6485H21.0275V14.2711C21.0275 13.1284 21.272 12.5483 22.6087 12.5483L24.5477 12.5475C24.7975 12.5475 25 12.3217 25 12.0435V8.27035C25 7.99239 24.7977 7.76689 24.5481 7.76637Z" fill="white"/>
</svg>
