<svg width="38" height="40" viewBox="0 0 38 40" fill="none" xmlns="http://www.w3.org/2000/svg">
<ellipse cx="19" cy="20.1194" rx="19" ry="19.5672" fill="url(#paint0_linear)"/>
<path d="M23.5862 9.8208H14.4138C11.4286 9.8208 9 12.3219 9 15.3962V24.8425C9 27.9167 11.4286 30.4178 14.4138 30.4178H23.5863C26.5714 30.4178 29 27.9167 29 24.8425V15.3962C29 12.3219 26.5714 9.8208 23.5862 9.8208V9.8208ZM19 25.7511C15.9846 25.7511 13.5314 23.2248 13.5314 20.1193C13.5314 17.0139 15.9846 14.4875 19 14.4875C22.0154 14.4875 24.4686 17.0139 24.4686 20.1193C24.4686 23.2248 22.0154 25.7511 19 25.7511ZM24.5994 15.8156C23.7083 15.8156 22.9835 15.0692 22.9835 14.1515C22.9835 13.2338 23.7083 12.4872 24.5994 12.4872C25.4905 12.4872 26.2154 13.2338 26.2154 14.1515C26.2154 15.0692 25.4905 15.8156 24.5994 15.8156Z" fill="white"/>
<path d="M18.9992 15.6953C16.6304 15.6953 14.7031 17.68 14.7031 20.1197C14.7031 22.5592 16.6304 24.544 18.9992 24.544C21.3681 24.544 23.2953 22.5592 23.2953 20.1197C23.2953 17.68 21.3681 15.6953 18.9992 15.6953Z" fill="white"/>
<path d="M24.5997 13.6948C24.3552 13.6948 24.1562 13.8997 24.1562 14.1515C24.1562 14.4032 24.3552 14.6081 24.5997 14.6081C24.8442 14.6081 25.0432 14.4034 25.0432 14.1515C25.0432 13.8996 24.8442 13.6948 24.5997 13.6948Z" fill="white"/>
<defs>
<linearGradient id="paint0_linear" x1="38" y1="0.552245" x2="-1.11741" y2="38.5358" gradientUnits="userSpaceOnUse">
<stop stop-color="#2400FF"/>
<stop offset="0.526042" stop-color="#FF005C"/>
<stop offset="1" stop-color="#FFB800"/>
</linearGradient>
</defs>
</svg>
