<svg width="38" height="40" viewBox="0 0 38 40" fill="none" xmlns="http://www.w3.org/2000/svg">
<ellipse cx="19" cy="20.1194" rx="19" ry="19.5672" fill="#FF820F"/>
<path d="M17.8523 25.1705C16.0449 24.9706 14.4152 24.4987 13.02 23.3419C12.8468 23.198 12.6681 23.0592 12.5101 22.8985C11.8994 22.2767 11.8379 21.5646 12.3211 20.8307C12.7345 20.2027 13.4285 20.0347 14.1498 20.3953C14.2895 20.4652 14.4225 20.5524 14.55 20.6461C17.1503 22.5402 20.7225 22.5925 23.3325 20.7313C23.5911 20.5211 23.8676 20.3498 24.1879 20.2623C24.8108 20.0927 25.3917 20.3353 25.726 20.913C26.1079 21.5729 26.103 22.2169 25.6325 22.7292C24.9107 23.5146 24.0426 24.0827 23.0781 24.4793C22.1661 24.8541 21.1671 25.0429 20.1784 25.1681C20.3276 25.3403 20.398 25.4249 20.4912 25.5243C21.8337 26.9543 23.1821 28.3782 24.5203 29.8126C24.9761 30.3013 25.0714 30.9073 24.8204 31.4757C24.5459 32.097 23.9315 32.5057 23.3291 32.462C22.9475 32.434 22.6498 32.2326 22.3854 31.9502C21.3722 30.8695 20.3401 29.8087 19.3475 28.7075C19.0586 28.3873 18.9197 28.4479 18.6647 28.7259C17.6455 29.8382 16.6097 30.9334 15.5678 32.0224C15.0999 32.5114 14.5432 32.5994 14.0006 32.3201C13.4238 32.0237 13.0568 31.3996 13.0852 30.7724C13.1047 30.3481 13.3015 30.0241 13.5762 29.7334C14.9048 28.327 16.2297 26.917 17.5552 25.5083C17.6428 25.4146 17.7246 25.3152 17.8523 25.1705Z" fill="white"/>
<path d="M18.9545 20.2716C15.73 20.26 13.086 17.4262 13.1048 14.0026C13.1234 10.5411 15.7691 7.75168 19.0253 7.76126C22.2881 7.77057 24.9069 10.6002 24.8905 14.0976C24.8739 17.5142 22.2116 20.2835 18.9545 20.2716ZM21.8849 14.0109C21.8793 12.3109 20.6022 10.9576 19.0018 10.9561C17.388 10.9543 16.0995 12.3322 16.1119 14.0476C16.1239 15.7411 17.412 17.0848 19.0167 17.0786C20.6166 17.0726 21.8903 15.7105 21.8849 14.0109Z" fill="white"/>
</svg>
