<svg width="38" height="40" viewBox="0 0 38 40" fill="none" xmlns="http://www.w3.org/2000/svg">
<ellipse cx="19" cy="20.1194" rx="19" ry="19.5672" fill="#00B2FF"/>
<path d="M31.5 12.2592C30.5703 12.6727 29.5797 12.9468 28.5469 13.0799C29.6094 12.4366 30.4203 11.4258 30.8016 10.2074C29.8109 10.8063 28.7172 11.2293 27.5516 11.4654C26.6109 10.4498 25.2703 9.8208 23.8078 9.8208C20.9703 9.8208 18.6859 12.1562 18.6859 15.0192C18.6859 15.4311 18.7203 15.8272 18.8047 16.2043C14.5437 15.9936 10.7734 13.9228 8.24062 10.7683C7.79844 11.5462 7.53906 12.4366 7.53906 13.3952C7.53906 15.195 8.45312 16.7905 9.81562 17.7142C8.99219 17.6984 8.18437 17.456 7.5 17.0741C7.5 17.09 7.5 17.1106 7.5 17.1312C7.5 19.6567 9.27656 21.7544 11.6062 22.2376C11.1891 22.3533 10.7344 22.4087 10.2625 22.4087C9.93438 22.4087 9.60312 22.3897 9.29219 22.32C9.95625 24.3781 11.8406 25.8912 14.0813 25.9403C12.3375 27.3235 10.1234 28.1569 7.72656 28.1569C7.30625 28.1569 6.90312 28.1379 6.5 28.0856C8.77031 29.5702 11.4609 30.4178 14.3625 30.4178C23.7937 30.4178 28.95 22.4959 28.95 15.6292C28.95 15.3994 28.9422 15.1776 28.9312 14.9574C29.9484 14.2254 30.8031 13.3112 31.5 12.2592Z" fill="white"/>
</svg>
