<svg width="38" height="40" viewBox="0 0 38 40" fill="none" xmlns="http://www.w3.org/2000/svg">
<ellipse cx="19" cy="20.1194" rx="19" ry="19.5672" fill="#2472FF"/>
<path d="M30.8727 25.5162C30.8437 25.4549 30.8166 25.4041 30.7914 25.3635C30.375 24.6302 29.5793 23.7302 28.4047 22.6632L28.3799 22.6388L28.3675 22.6268L28.3549 22.6145H28.3423C27.8092 22.1176 27.4716 21.7836 27.3303 21.6125C27.0716 21.2867 27.0137 20.9569 27.155 20.6227C27.2549 20.3703 27.6301 19.8371 28.2797 19.0224C28.6213 18.5907 28.892 18.2447 29.0918 17.984C30.5331 16.1106 31.1579 14.9134 30.9662 14.3921L30.8918 14.2702C30.8418 14.1969 30.7127 14.1298 30.5046 14.0686C30.2961 14.0075 30.0296 13.9974 29.7047 14.0381L26.106 14.0625C26.0477 14.0423 25.9644 14.0441 25.856 14.0686C25.7477 14.0931 25.6935 14.1054 25.6935 14.1054L25.6308 14.136L25.5811 14.1727C25.5395 14.197 25.4936 14.2398 25.4436 14.3009C25.3938 14.3618 25.3522 14.4332 25.319 14.5147C24.9272 15.5002 24.4817 16.4165 23.9817 17.2636C23.6735 17.7686 23.3904 18.2063 23.1319 18.577C22.8737 18.9475 22.6571 19.2204 22.4823 19.3954C22.3072 19.5706 22.1492 19.7109 22.0073 19.8169C21.8657 19.9229 21.7575 19.9677 21.6826 19.9513C21.6076 19.9349 21.5369 19.9187 21.47 19.9024C21.3534 19.8291 21.2597 19.7293 21.189 19.6031C21.118 19.4768 21.0702 19.318 21.0452 19.1265C21.0203 18.935 21.0056 18.7703 21.0014 18.6317C20.9975 18.4934 20.9993 18.2977 21.0078 18.0452C21.0164 17.7926 21.0203 17.6217 21.0203 17.5321C21.0203 17.2226 21.0265 16.8866 21.0389 16.5241C21.0515 16.1617 21.0617 15.8745 21.0702 15.663C21.0787 15.4512 21.0827 15.2271 21.0827 14.9909C21.0827 14.7547 21.068 14.5695 21.0389 14.435C21.0102 14.3007 20.9661 14.1704 20.908 14.044C20.8496 13.9178 20.7641 13.8201 20.6519 13.7508C20.5394 13.6816 20.3996 13.6266 20.2333 13.5858C19.7917 13.4881 19.2294 13.4352 18.5462 13.427C16.9968 13.4108 16.0012 13.5086 15.5597 13.7204C15.3848 13.8098 15.2265 13.9321 15.0849 14.0868C14.9349 14.266 14.914 14.3638 15.0223 14.3799C15.5222 14.4531 15.8761 14.6283 16.0844 14.9052L16.1595 15.0519C16.2178 15.1578 16.2761 15.3452 16.3345 15.614C16.3927 15.8827 16.4303 16.18 16.4469 16.5056C16.4885 17.1003 16.4885 17.6094 16.4469 18.0328C16.4052 18.4565 16.3658 18.7863 16.3282 19.0225C16.2906 19.2587 16.2344 19.4501 16.1595 19.5967C16.0844 19.7433 16.0345 19.8329 16.0094 19.8654C15.9844 19.8979 15.9636 19.9184 15.9471 19.9265C15.8388 19.967 15.7262 19.9877 15.6096 19.9877C15.4929 19.9877 15.3513 19.9306 15.1848 19.8165C15.0182 19.7024 14.8454 19.5457 14.6663 19.3462C14.4871 19.1465 14.2851 18.8676 14.0601 18.5092C13.8353 18.1509 13.602 17.7274 13.3604 17.2387L13.1605 16.8843C13.0355 16.6563 12.8649 16.3243 12.6483 15.8886C12.4315 15.4528 12.24 15.0312 12.0734 14.624C12.0068 14.4529 11.9068 14.3227 11.7736 14.2331L11.711 14.1963C11.6695 14.1638 11.6027 14.1293 11.5111 14.0925C11.4195 14.0557 11.3238 14.0294 11.2237 14.0132L7.79988 14.0375C7.45001 14.0375 7.21262 14.115 7.08762 14.2697L7.0376 14.343C7.0126 14.3837 7 14.4489 7 14.5385C7 14.6281 7.02499 14.7381 7.07502 14.8683C7.57483 16.0168 8.11838 17.1245 8.70564 18.1915C9.29291 19.2585 9.80323 20.118 10.2363 20.7692C10.6695 21.4208 11.111 22.0359 11.5609 22.614C12.0107 23.1924 12.3085 23.563 12.4542 23.7258C12.6001 23.8889 12.7147 24.0109 12.798 24.0923L13.1104 24.3855C13.3104 24.581 13.6039 24.8152 13.9913 25.088C14.3788 25.3609 14.8078 25.6297 15.2784 25.8946C15.7492 26.1591 16.2968 26.3749 16.9217 26.5419C17.5465 26.709 18.1546 26.776 18.7461 26.7437H20.1831C20.4746 26.7191 20.6954 26.6295 20.8455 26.4748L20.8952 26.4136C20.9286 26.365 20.9599 26.2894 20.9888 26.1878C21.018 26.086 21.0326 25.9738 21.0326 25.8518C21.024 25.5017 21.0513 25.1861 21.1136 24.9051C21.1759 24.6242 21.2469 24.4124 21.3263 24.2698C21.4056 24.1273 21.4952 24.0071 21.5948 23.9096C21.6947 23.8119 21.7659 23.7527 21.8076 23.7323C21.8491 23.7118 21.8822 23.6979 21.9072 23.6896C22.1072 23.6245 22.3425 23.6875 22.6135 23.8791C22.8842 24.0705 23.1382 24.3069 23.3758 24.5878C23.6132 24.8689 23.8985 25.1843 24.2317 25.5345C24.565 25.8848 24.8565 26.1452 25.1063 26.3165L25.3562 26.4631C25.523 26.5609 25.7396 26.6505 26.0062 26.7319C26.2724 26.8133 26.5056 26.8337 26.7058 26.793L29.9046 26.7442C30.221 26.7442 30.4672 26.693 30.6418 26.5914C30.8168 26.4896 30.9207 26.3774 30.9543 26.2554C30.9877 26.1333 30.9895 25.9947 30.9606 25.8398C30.931 25.6853 30.9018 25.5772 30.8727 25.5162Z" fill="white"/>
</svg>
